<svg width="512" height="512" viewBox="0 0 512 512" fill="none" xmlns="http://www.w3.org/2000/svg">
<g clip-path="url(#clip0_457_273)">
<circle cx="256" cy="256" r="256" fill="#2BAECE"/>
<path d="M338.434 97.5829L345.366 100.876L330.008 133.148L323.076 129.855L329.421 116.515L317.37 110.783L311.026 124.123L304.094 120.829L319.451 88.5575L326.383 91.8511L320.472 104.285L332.523 110.017L338.434 97.5829Z" fill="white"/>
<path d="M393.889 141.689L369.978 147.881L359.753 158.055L354.2 152.476L364.463 142.264L370.808 118.494L376.578 124.289L372.212 140.183L388.131 135.906L393.901 141.702L393.889 141.689Z" fill="white"/>
<path d="M416.944 179.093C420.084 185.476 417.761 192.638 411.429 195.752C405.097 198.855 398.012 196.327 394.872 189.944L392.242 184.582L382.221 189.497L378.838 182.616L410.918 166.851L416.931 179.093H416.944ZM401.165 186.472C402.506 189.204 405.34 190.072 408.008 188.77C410.676 187.455 411.71 184.684 410.369 181.953L407.88 176.897L398.676 181.416L401.165 186.472Z" fill="white"/>
<path d="M403.744 231.318L405.838 245.348L398.715 246.408L395.498 224.795L430.859 219.536L433.999 240.599L426.927 241.646L424.923 228.178L417.94 229.212L419.753 241.378L412.833 242.412L411.021 230.246L403.757 231.331L403.744 231.318Z" fill="white"/>
<path d="M395.369 286.875L408.556 282.101L409.386 277.25L397.36 275.194L398.65 267.624L433.883 273.637L431.483 287.743C430.296 294.739 424.539 299.13 417.747 297.981C413.139 297.19 409.794 294.049 408.582 289.862L393.939 295.326L395.382 286.875H395.369ZM425.547 280.007L416.42 278.45L415.386 284.501C414.85 287.666 416.445 289.875 419.088 290.334C421.718 290.781 423.977 289.224 424.513 286.058L425.547 280.007Z" fill="white"/>
<path d="M386.358 313.913L418.617 329.308L415.31 336.227L383.051 320.832L386.358 313.913Z" fill="white"/>
<path d="M386.498 351.241C394.285 358.453 394.668 369.866 387.315 377.806C379.987 385.721 368.639 386.193 360.826 378.955C353.013 371.717 352.618 360.368 359.958 352.453C367.311 344.513 378.724 344.041 386.511 351.253L386.498 351.241ZM366.098 373.249C370.86 377.653 377.651 377.487 381.953 372.853C386.255 368.219 385.924 361.326 381.2 356.96C376.477 352.581 369.583 352.785 365.294 357.419C360.992 362.053 361.337 368.845 366.098 373.262V373.249Z" fill="white"/>
<path d="M326.295 420.15L319.504 423.405L304.032 391.185L309.815 388.402L333.955 401.589L324.278 381.457L331.07 378.202L346.542 410.423L340.299 413.423L316.849 400.504L326.282 420.15H326.295Z" fill="white"/>
<path d="M288.672 169.914L297.557 173.501L296.23 176.795L283.847 171.778L292.566 150.229L296.077 151.646L288.698 169.889L288.672 169.914Z" fill="white"/>
<path d="M306.826 183.6L320.626 164.911L323.664 167.157L309.865 185.847L306.826 183.6Z" fill="white"/>
<path d="M336.966 217.722L334.77 214.543L347.115 202.773L329.281 205.965L328.732 205.173L338.038 189.637L322.643 196.978L320.447 193.799L341.715 183.701L343.834 186.765L334.821 201.522L351.838 198.356L353.983 201.458L336.953 217.709L336.966 217.722Z" fill="white"/>
<path d="M344.077 246.114L348.66 243.203L346.719 233.105L341.383 232.135L340.63 228.19L365.191 232.914L365.868 236.412L344.855 250.148L344.077 246.114ZM360.659 235.633L350.319 233.744L351.762 241.263L360.659 235.633Z" fill="white"/>
<path d="M351.863 261.535L351.302 265.339C348.736 264.969 347 266.858 346.617 269.526C346.259 271.951 347.242 274.211 349.349 274.53C351.634 274.862 352.566 272.513 353.625 269.858C354.991 266.488 356.548 262.632 361.297 263.322C365.446 263.935 367.438 267.407 366.723 272.271C365.995 277.224 362.842 279.751 358.514 279.113L359.063 275.411C361.361 275.743 362.88 274.045 363.225 271.671C363.557 269.398 362.791 267.369 360.914 267.088C358.795 266.781 357.876 269.041 356.817 271.645C355.412 275.066 353.766 279.088 348.825 278.36C344.229 277.683 342.327 273.649 343.004 269.028C343.757 263.909 347.166 260.845 351.863 261.535Z" fill="white"/>
<path d="M334.171 296.41C336.533 291.814 340.758 290.014 344.971 292.197L343.209 295.606C340.898 294.419 338.652 295.644 337.413 298.044C336.29 300.227 336.482 302.678 338.384 303.661C340.439 304.721 342.086 302.793 343.95 300.623C346.337 297.878 349.056 294.738 353.32 296.934C357.047 298.848 357.8 302.793 355.554 307.159C353.269 311.601 349.464 312.98 345.571 310.976L347.281 307.657C349.337 308.716 351.328 307.606 352.426 305.461C353.473 303.419 353.409 301.248 351.724 300.38C349.822 299.397 348.213 301.236 346.375 303.367C343.937 306.138 341.09 309.418 336.647 307.133C332.511 305.002 332.026 300.572 334.158 296.423L334.171 296.41Z" fill="white"/>
<path d="M314.728 321.432C319.923 316.747 327.225 317.143 331.821 322.249C336.429 327.356 336.046 334.658 330.851 339.343C325.655 344.015 318.379 343.632 313.77 338.513C309.162 333.394 309.532 326.105 314.728 321.432ZM316.63 335.934C319.834 339.496 324.876 339.789 328.4 336.611C331.936 333.432 332.153 328.364 328.961 324.815C325.77 321.279 320.715 320.973 317.179 324.151C313.642 327.33 313.413 332.36 316.63 335.934Z" fill="white"/>
<path d="M292.004 340.67L283.119 344.27L281.779 340.977L294.161 335.96L302.893 357.496L299.383 358.913L291.991 340.683L292.004 340.67Z" fill="white"/>
<path d="M262.198 291.521H249.432V433.77H262.198V291.521Z" fill="white"/>
<path d="M236.32 286.415L181.879 417.848L193.673 422.733L248.114 291.3L236.32 286.415Z" fill="white"/>
<path d="M226.139 276.632L125.553 377.218L134.58 386.245L235.165 285.659L226.139 276.632Z" fill="white"/>
<path d="M220.496 263.699L89.0752 318.135L93.9605 329.929L225.382 275.493L220.496 263.699Z" fill="white"/>
<path d="M220.262 249.587H77.9998V262.353H220.262V249.587Z" fill="white"/>
<path d="M93.9761 182.013L89.0908 193.807L220.524 248.248L225.409 236.454L93.9761 182.013Z" fill="white"/>
<path d="M134.591 125.711L125.565 134.738L226.15 235.323L235.177 226.296L134.591 125.711Z" fill="white"/>
<path d="M193.66 89.2301L181.865 94.1154L236.302 225.536L248.096 220.651L193.66 89.2301Z" fill="white"/>
<path d="M262.198 78.1417H249.432V220.404H262.198V78.1417Z" fill="white"/>
</g>
<defs>
<clipPath id="clip0_457_273">
<rect width="512" height="512" fill="white"/>
</clipPath>
</defs>
</svg>
